# xmcd CD database file
#
# Track frame offsets:
#	150
#	13325
#	35607
#	60770
#	83537
#	104170
#	124162
#	151267
#	170307
#	186845
#	208100
#	229667
#
# Disc length: 3357 seconds
#
# Revision: 4
# Processed by: cddbd v1.5.2PL0 Copyright (c) Steve Scherf et al.
# Submitted via: CDex 1.70beta3
#
DISCID=970d1b0c
DTITLE=カレイド・スターズ - カレイドスター ヴォーカルアルバム　～みんなの すごい キャラソン～
DYEAR=2004
DGENRE=Vocal
TTITLE0=広橋涼/Reach for my dream
TTITLE1=下野絋/Lightning Girl
TTITLE2=西村ちなみ/Always new
TTITLE3=広橋涼、水橋かおり/Blanc et Noir
TTITLE4=渡辺明乃/My Real
TTITLE5=水橋かおり/Under the rose
TTITLE6=中原麻衣/Blooming
TTITLE7=大原さやか/Ray of Light
TTITLE8=折笠富美子、小桜エツ子/M ＆ J
TTITLE9=櫻井孝宏/Angel Dust
TTITLE10=広橋涼/翼は夢、そして空へ
TTITLE11=広橋涼、西村ちなみ、水橋かおり、渡辺明乃、大原さやか/Everlasting Rainbow
EXTD=YEAR: 2004
EXTT0=
EXTT1=
EXTT2=
EXTT3=
EXTT4=
EXTT5=
EXTT6=
EXTT7=
EXTT8=
EXTT9=
EXTT10=
EXTT11=
PLAYORDER=
